
        <svg xmlns="http://www.w3.org/2000/svg" xmlns:xlink="http://www.w3.org/1999/xlink" version="1.1" width="3181.9620172819077" 
        height="3230.368290843939" viewBox="0 0 3181.9620172819077 3230.368290843939">
			<rect fill="#212121" width="3181.9620172819077" height="3230.368290843939"/>
			<g transform="scale(11.51841454219695) translate(10, 10)">
				<defs id="SvgjsDefs1058"><linearGradient id="SvgjsLinearGradient1067"><stop id="SvgjsStop1068" stop-color="#834f2a" offset="0"></stop><stop id="SvgjsStop1069" stop-color="#dba173" offset="0.5"></stop><stop id="SvgjsStop1070" stop-color=" #834F2A" offset="1"></stop></linearGradient></defs><g id="SvgjsG1059" featureKey="rootContainer" transform="matrix(1.3774785505142044,0,0,1.3774785505142044,0.0004814585578569946,0.00023760932238031074)" fill="#ffffff"><path xmlns="http://www.w3.org/2000/svg" d="M17.914 148.907zM22.657 154.94a90.586 90.586 0 0 0 5.861 6.251c6.914 6.805 15.159 12.525 24.004 16.851 3.259 1.526 6.265 3.107 9.787 4.468.88.338 1.779.7 2.724 1.026.953.302 1.941.604 2.974.903 1.027.321 2.122.549 3.267.786 1.146.23 2.336.493 3.614.624a91.24 91.24 0 0 1-18.434-5.99 93.833 93.833 0 0 1-16.873-9.842c-10.548-7.727-19.57-17.648-26.16-28.989-.272-.339-.685-.985-1.18-1.808l-.796-1.348-.803-1.551c-.534-1.076-1.149-2.168-1.62-3.226a71.281 71.281 0 0 0-1.326-2.748c2.048 5.101 4.412 9.563 7.059 13.806a93.473 93.473 0 0 0 3.869 5.697c-.192-.259-.392-.511-.583-.771a95.012 95.012 0 0 0 4.6 5.841l.016.02zM18.039 149.078l-.125-.17.125.17zM1.335 106.042l-.483-3.875c.256 2.365.553 5.008 1.096 7.654l-.327-1.879a23.961 23.961 0 0 1-.286-1.9zM85.812 185.575c6.652.673 13.628.472 20.461-.609 6.837-1.077 13.524-2.987 19.741-5.449-11.45 4.503-23.602 6.506-35.49 6.171-1.591-.025-3.159 0-4.712-.113z"></path><path xmlns="http://www.w3.org/2000/svg" d="M46.426 171.967l-.259-.165c.087.055.172.111.259.165zM46.167 171.802zM43.653 170.135zM56.077 177.284A83.837 83.837 0 0 0 73.2 183.1c-9.688-2.21-18.805-6.109-26.774-11.133 3.06 1.947 6.277 3.749 9.651 5.317zM177.002 107.094c.098-1.58.296-3.238.346-4.027.594-5.071.77-9.401.745-13.745-.11-.783-.425-2.25-.55-3.918-.153-1.672-.378-3.309-.568-4.924-.289-1.601-.538-3.186-.854-4.74 2.275 11.617 2.237 23.279.144 34.282a94.97 94.97 0 0 1 .737-2.928z"></path><path xmlns="http://www.w3.org/2000/svg" d="M.887 83.482c.848-6.9 2.653-13.626 4.37-18.107l-.695 3.28c.429-.961 1.122-3.194 2.067-5.557l.682-1.802.753-1.747c.5-1.131.92-2.203 1.363-3.025-.303.771-.595 1.602-.947 2.436-.345.837-.732 1.687-1.101 2.542l1.514-3.409A111.863 111.863 0 0 0 4.954 69.8c-1.133 4.352-2.029 8.926-2.511 13.032-.14 1.024-.189 2.024-.28 2.978-.067.954-.183 1.864-.192 2.724-.042 1.719-.1 3.224-.071 4.428.105 2.409.25 3.61.459 2.939.411-1.333.403-8.188 1.837-16.767.767-4.276 1.868-8.966 3.362-13.561 1.483-4.599 3.427-9.058 5.44-12.992l-.592 1.292-.545 1.331-1.116 2.691-1.024 2.78-.521 1.402c-.153.476-.308.954-.461 1.434-1.32 3.807-2.307 7.816-3.167 11.857l-.559 3.052c-.205 1.014-.292 2.046-.444 3.067-.318 2.041-.434 4.097-.611 6.129-.199 4.074-.239 8.098.13 11.946-.015-.914-.03-1.726-.017-2.512l.115-2.355c.048-.809.039-1.667.115-2.65.07-.983.134-2.091.19-3.402.391-6.608 1.572-13.15 3.408-19.481 1.75-6.358 3.814-11.957 6.889-17.03l.801-1.526c.542-1.024.993-2.034 1.566-3.064.653-1.13 1.278-1.976 1.784-2.751.521-.767.963-1.441 1.469-2.095l3.682-5.082c.075-.009-.022.185-.2.473a28.962 28.962 0 0 1 1.959-2.49c.755-.875 1.488-1.803 2.109-2.569.146-.007.288-.011.623-.251 8.65-9.197 19.295-16.692 31.291-21.417l2.667-1.039 2.7-.899 1.343-.448 1.36-.38 2.71-.753c1.55-.373 3.12-.751 4.721-1.091l2.437-.426c.819-.141 1.642-.3 2.484-.378 1.674-.201 3.134-.625 3.921-.729 4.369-.249 8.73-.199 13.849.216.397.007 1.015.043 1.732.082.717.041 1.537.061 2.332.134.932.21 1.927.418 2.971.621 6.369.988 12.527 2.754 18.386 5.103l-.007-.028 2.244.894 2.29 1.058c1.571.684 3.11 1.559 4.7 2.383.798.407 1.554.904 2.338 1.354.77.474 1.576.894 2.32 1.412 1.508 1.002 3.037 1.961 4.446 3.032a99.912 99.912 0 0 1 6.6 5.198c.046.042.094.081.14.122l.042.038 1.457 1.322 1.394 1.391 1.395 1.392c.462.467.89.967 1.337 1.449-.216-.35-.208-.491-.2-.63-.689-.66-1.504-1.441-2.309-2.21 1.343 1.222 2.515 2.327 3.477 3.229.371.474.776.94 1.16 1.449l1.186 1.566 1.261 1.629 1.255 1.752c2.226 2.838 4.191 5.874 6.057 8.97.864 1.588 1.817 3.131 2.586 4.774l1.213 2.436 1.092 2.497c.314.533.192.022.231-.068 1.225 2.962 2.21 6.042 3.102 9.146a88.212 88.212 0 0 1 3.408 17.211c.225 1.378.321 2.772.52 4.153l-.123 2.924c-.001 1.103.057 2.206.01 3.311l-.128 3.326c-.016.75-.124 1.569-.187 2.459-.084.888-.128 1.846-.256 2.856l-.412 3.192c-.132 1.119-.387 2.269-.583 3.471a90.635 90.635 0 0 1-4.312 15.482c-.242.826-.427 1.486-.592 1.855-.627 1.501-1.296 2.954-1.942 4.385-.723 1.394-1.386 2.788-2.127 4.108a86.09 86.09 0 0 1-7.949 12.379c-.336.439-.649.885-.987 1.297l-.998 1.206c-.66.779-1.25 1.558-1.876 2.234-1.251 1.352-2.301 2.606-3.286 3.549-1.128 1.178-1.027 1.233-.246.665a35.07 35.07 0 0 0 1.608-1.262l2.122-1.914c.776-.677 1.519-1.441 2.235-2.161.708-.725 1.416-1.386 1.962-1.984 1.101-1.191 1.824-1.926 1.67-1.599-1.777 3.345-5.013 7.471-9.743 12.035-2.413 2.227-5.128 4.647-8.339 6.98-1.566 1.221-3.307 2.338-5.082 3.558-1.834 1.123-3.708 2.353-5.757 3.445-4.484 2.442 3.365-1.475 3.577-1.512a22.87 22.87 0 0 1-2.377 1.64c-1.478.786-2.943 1.597-4.474 2.273-.895.411-1.774.855-2.679 1.239l-2.729 1.122 1.444-.568c2.952-1.173 5.711-2.555 8.202-3.922-.936.566-1.96 1.221-3.082 1.812-1.203.622-2.448 1.302-3.697 1.909l-3.625 1.686c12.968-4.711 24.885-12.507 34.319-22.67 4.723-5.066 8.935-10.631 12.369-16.651a93.904 93.904 0 0 0 8.288-18.999c-3.154 9.93-8.071 19.052-13.981 26.765 10.744-14.507 17.15-32.293 17.999-50.636-.001 1.011-.101 2.018-.168 3.025-.083 1.007-.123 2.018-.241 3.022-.257 2.005-.441 4.021-.827 6.009-.624 4-1.636 7.931-2.782 11.815 2.262-7.021 3.613-14.424 4.145-21.869.554-7.451.092-14.947-1.057-22.211 1.974 9.622 2.301 20.524.619 31.298 1.182-6.949 1.482-14.112 1.028-21.214-.102-2.713-.422-5.407-.685-7.901-.377-2.476-.662-4.762-1.027-6.611 1.445 6.826 2.015 12.648 2.293 18.136-.267-11.977-2.748-24.112-7.62-35.511 2.659 6.191 4.842 12.851 6.175 19.698 1.34 6.84 1.897 13.838 1.58 20.57-.015-.788.018-1.575-.028-2.366l-.107-2.391c.287 10.85-1.384 21.604-4.696 31.717-1.662 5.056-3.715 9.969-6.2 14.644a95.521 95.521 0 0 1-8.56 13.316c3.673-4.29 7.551-10.354 10.646-17.015 3.081-6.675 5.368-13.894 6.941-20.199-2.314 11.322-6.907 22.494-13.571 32.471-6.646 9.985-15.351 18.764-25.423 25.502-10.06 6.759-21.474 11.437-33.187 13.748a94.608 94.608 0 0 1-17.657 1.809 94.462 94.462 0 0 1-17.361-1.515l3.005.571c1.002.19 2.018.295 3.026.445 2.016.324 4.055.446 6.087.633 4.073.229 8.168.306 12.25-.005 4.089-.217 8.152-.827 12.196-1.572 2.006-.456 4.036-.829 6.017-1.414.994-.278 2-.521 2.987-.83l2.955-.958c-1.492.462-3.062 1.074-4.739 1.523l-2.101.618a91.772 91.772 0 0 0 12.91-4.496 89.46 89.46 0 0 0 5.651-2.705 96.653 96.653 0 0 1-10.714 4.872 98.407 98.407 0 0 1-21.66 5.382c-1.11.176-2.122.231-3.029.326l-2.428.24c-1.429.113-2.484.164-3.222.245-1.477.147-1.687.284-1.099.397.587.113 1.971.203 3.673.251 1.697-.01 3.71-.101 5.541-.268 18.397-1.887 35.288-9.107 48.824-19.916 13.545-10.811 23.919-25.172 29.701-41.467.363-.946.642-1.922.944-2.89.293-.971.617-1.932.882-2.912.491-1.97 1.072-3.917 1.448-5.917l.619-2.985.487-3.012.241-1.507.172-1.517.342-3.034c.698-8.114.422-16.315-.812-24.363-.66-4.554-1.82-9.961-3.315-14.777l-1.15-3.484c-.4-1.107-.825-2.151-1.203-3.133l-.557-1.415-.571-1.271-.981-2.124c-3.134-6.359-7.072-12.424-11.682-18.065-4.605-5.643-9.896-10.868-15.861-15.418l-2.244-1.703-2.327-1.608-1.166-.806-1.203-.756-2.417-1.508c-3.295-1.904-6.67-3.739-10.228-5.261-3.521-1.598-7.206-2.895-10.957-4.055-1.895-.52-3.781-1.1-5.724-1.499-.968-.209-1.928-.463-2.907-.638l-2.944-.521C100.363.01 93.04-.285 85.724.265 78.412.83 71.069 2.218 64.028 4.614l-2.635.913c-.881.297-1.73.682-2.597 1.019-.858.359-1.735.673-2.577 1.069l-2.532 1.173c-.852.376-1.675.808-2.496 1.245l-2.469 1.297-2.402 1.412c-.8.472-1.606.933-2.372 1.458l-2.324 1.528c-.782.497-1.506 1.078-2.261 1.612-.741.554-1.51 1.07-2.226 1.654l-2.157 1.737c-.729.565-1.417 1.178-2.103 1.792l-2.063 1.83-1.971 1.919c-.656.639-1.319 1.271-1.93 1.951-5.031 5.298-9.451 11.078-13.066 17.194A99.518 99.518 0 0 0 5.18 64.379C.805 77.299-.45 90.402.134 102.237c-.126-4.872-.147-11.859.753-18.755zm141.132 90.446a96.807 96.807 0 0 0 8.765-6.389c-2.84 2.339-5.758 4.499-8.765 6.389zm40.217-54.282c-.299.901-.552 1.791-.882 2.641l-.957 2.523-.466 1.248-.513 1.231a108.54 108.54 0 0 0-.997 2.501 97.307 97.307 0 0 1-6.587 13.35c-2.521 4.275-5.443 8.281-8.565 12.04-1.542 1.899-3.222 3.66-4.874 5.421l-2.581 2.523c-.847.848-1.774 1.604-2.652 2.404-.736.64-1.478 1.266-2.225 1.882a90.696 90.696 0 0 0 7.896-7.312 89.808 89.808 0 0 1-11.689 10.188c-1.036.722-2.037 1.496-3.113 2.176l-3.247 2.069-3.43 1.949c-1.167.648-2.399 1.224-3.634 1.855a74.206 74.206 0 0 1 2.685-1.508c1.021-.567 2.092-1.237 3.138-1.85 1.054-.601 2.012-1.261 2.808-1.813.796-.552 1.42-1.01 1.745-1.306-.464.315-.936.617-1.406.924a92.477 92.477 0 0 0 1.507-1.015c-.021.023-.065.059-.101.091 10.932-7.466 20.245-17.277 27.223-28.462 7.009-11.175 11.57-23.781 13.46-36.601-.41 5.142-1.352 9.248-2.543 12.851zm-6.654-65.352zm-8.448-12.698a92.37 92.37 0 0 1 7.773 14.352c.25.549.486 1.106.719 1.664 4.963 12.154 7.221 25.192 6.89 38.036.084-4.25-.198-8.498-.669-12.71-.533-4.854-1.518-9.65-2.824-14.341-2.562-9.407-6.723-18.323-12.005-26.451.485.67.996 1.396 1.525 2.166a32.826 32.826 0 0 1 1.59 2.463l-.638-1.109-.689-1.079-1.378-2.156c-.938-1.424-1.955-2.796-2.934-4.192-1.062-1.334-2.069-2.712-3.174-4.011-.836-.953-1.637-1.938-2.485-2.879 2.992 3.155 5.801 6.54 8.299 10.247zM96.886 1.152c1.467.078 2.937.221 4.407.331 1.204.101 2.402.279 3.588.413.356.015.732.039 1.204.092.471.065 1.034.186 1.769.354 5.469.912 10.459 2.283 14.001 3.699 6.798 2.573 13.123 5.774 18.86 9.471 5.739 3.69 10.889 7.887 15.246 12.471 2.008 2.179 1.422 1.704.315.646l1.662 1.764c-.736-.734-1.459-1.478-2.206-2.196l-2.301-2.09c.56.49 1.918 1.663 2.845 2.522-7.389-7.539-16.026-13.799-25.375-18.404-9.356-4.603-19.431-7.446-29.502-8.581 1.618.18 2.412.22 3.168.24-1.085-.127-2.173-.301-3.274-.401-1.479-.097-2.955-.229-4.423-.301l-4.36-.103c1.444-.001 2.907.039 4.376.073z"></path><path xmlns="http://www.w3.org/2000/svg" d="M115.942 184.69l.426-.125c-.446.12-.885.252-1.334.366.304-.076.609-.15.908-.241zM160.424 146.151c4.235-5.587 7.977-12.263 10.366-18.014l-.029.006c-6.061 14.322-15.892 26.66-28.16 35.744a159.12 159.12 0 0 0 6.418-4.703c2.698-2.82 7.213-7.406 11.405-13.033zM35.35 162.846c7.172 6.412 15.821 11.992 25.448 15.751 3.754 1.413 7.585 2.651 11.503 3.523 1.944.502 3.929.812 5.899 1.181.987.175 1.987.272 2.979.412.994.129 1.986.275 2.987.333-4.519-.501-9.005-1.251-13.372-2.44-4.364-1.185-8.642-2.65-12.769-4.449a97.4 97.4 0 0 1-11.894-6.314c-3.786-2.408-7.376-5.097-10.781-7.997zM123.877 174.277l-2.219.871-2.266.756c-1.5.54-3.047.944-4.59 1.373 1.551-.39 3.111-.754 4.624-1.254l2.283-.698 2.23-.815c-.086-.044-.594.055-.062-.233zM97.683 179.965c-1.16.099-2.326.09-3.494.102-1.168.014-2.338.039-3.509-.038l1.576.148c.482.031.916.068 1.295.113 1.381-.118 2.752-.151 4.132-.325zM51.441 169.209c1.341.787 2.765 1.48 4.178 2.244.354.194.996.415 1.801.709-1.721-.739-3.37-1.655-5.046-2.505-.83-.441-1.629-.935-2.443-1.395-.812-.464-1.621-.927-2.389-1.445l.937.626.977.584 1.985 1.182z"></path></g><g id="SvgjsG1060" featureKey="symbolFeature-0" transform="matrix(1.8834557974167372,0,0,1.8834557974167372,80.3208045868491,59.096786916867636)" fill="url(#SvgjsLinearGradient1067)"><g xmlns="http://www.w3.org/2000/svg"><path fill="url(#SvgjsLinearGradient1067)" d="M39.602,16.44c0.015-0.153,0.021-0.366,0.021-0.53c0-3.133-2.548-5.739-5.681-5.739   c-0.01,0-0.017,0-0.022,0c-1.017-2.578-4.132-4.913-7.715-4.913c-3.598,0-6.708,2.085-7.718,5.017   c-0.119-0.008-0.236-0.004-0.357-0.004c-3.13,0-5.674,2.547-5.683,5.674c-3.77,0.202-6.777,3.328-6.777,7.147   c0,2.99,1.836,5.611,4.584,6.664l5.112,14.219c0.123,0.341,0.446,0.569,0.808,0.569h18.071c0.367,0,0.693-0.233,0.812-0.58   l4.852-14.098c0.008-0.004,0.016-0.007,0.021-0.012c2.924-0.979,4.88-3.645,4.88-6.675C44.811,20.139,42.833,17.607,39.602,16.44z    M12.244,30.212c0.196,0.016,0.388,0.045,0.588,0.045c1.121,0,2.191-0.268,3.168-0.753l4.619,13.321h-3.84L12.244,30.212z    M32.822,28.473c0.034-0.064,0.055-0.137,0.087-0.204c0.452,0.291,0.912,0.57,1.369,0.831l-4.64,13.726h-3.548v-10.33   c0.099,0.005,0.194,0.021,0.295,0.021C29.127,32.516,31.658,30.922,32.822,28.473z M25.231,42.825h-3.703l-4.775-13.768   c0.147-0.099,0.304-0.182,0.446-0.292c0.022-0.018,0.045-0.037,0.064-0.056c0.146-0.14,1.438-1.297,2.746-0.107   c1.027,2.036,2.993,3.441,5.22,3.811v10.412H25.231z M33.633,42.825h-3.088l4.499-13.312c0.944,0.479,1.838,0.808,2.554,0.808   c0.113,0,0.231-0.02,0.344-0.026L33.633,42.825z M39.282,28.259c-0.083,0.025-0.16,0.064-0.232,0.114   c-0.537,0.154-1.013,0.229-1.451,0.229c-0.686,0-2.09-0.689-4.168-2.042c0.07-0.399,0.117-0.803,0.117-1.206   c0-1.486-0.453-2.915-1.31-4.132c-0.272-0.388-0.807-0.48-1.198-0.207c-0.388,0.272-0.481,0.808-0.207,1.197   c0.651,0.925,0.996,2.013,0.996,3.142c0,0.396-0.045,0.795-0.139,1.195c-0.088,0.406-0.223,0.792-0.412,1.168   c-0.889,1.872-2.811,3.08-4.893,3.08s-4.003-1.208-4.895-3.08c-0.042-0.089-0.099-0.167-0.168-0.238   c-2.004-2.004-4.261-0.925-5.207-0.048c-0.946,0.725-2.079,1.107-3.284,1.107c-0.59,0-1.151-0.089-1.679-0.266   c-2.251-0.723-3.764-2.805-3.764-5.178c0-3.001,2.442-5.443,5.442-5.443c0.155,0,0.302,0.009,0.447,0.027   c0.018,0.002,0.03-0.005,0.047-0.003c0.02,0,0.039,0.01,0.06,0.01c0.055,0,0.113-0.005,0.168-0.017   c0.015-0.003,0.023-0.013,0.037-0.016c0.052-0.013,0.094-0.038,0.141-0.058c0.056-0.025,0.114-0.047,0.162-0.083   c0.038-0.027,0.064-0.065,0.098-0.098c0.044-0.045,0.089-0.086,0.122-0.138c0.025-0.042,0.037-0.09,0.055-0.134   c0.023-0.059,0.05-0.114,0.06-0.177c0.002-0.013,0.009-0.021,0.011-0.032c0.007-0.048-0.009-0.09-0.011-0.137   c-0.001-0.045,0.011-0.09,0-0.137c-0.042-0.213-0.062-0.439-0.062-0.691c0-2.185,1.778-4.063,3.964-4.063   c0.274,0,0.544-0.015,0.804-0.015h0.001c0,0,0.001,0,0.002,0c0.07,0,0.137,0.102,0.206,0.099c0.044-0.001,0.089,0.057,0.132,0.05   c0.1-0.02,0.19-0.036,0.275-0.086c0.01-0.005,0.021,0.006,0.029,0c0.089-0.059,0.169-0.128,0.232-0.217   c0-0.001,0.002,0,0.003-0.001c0.048-0.067,0.136-0.148,0.163-0.231c0.01-0.028,0.097-0.048,0.097-0.079c0-0.001,0-0.001,0-0.002   s0-0.001,0-0.001c0-2.542,3.097-4.387,6.191-4.387c3.068,0,5.665,1.824,6.211,4.33c0.07,0.341,0.09,0.655,0.09,0.966   c0,1.98-1.311,3.773-3.408,4.678c-0.436,0.188-0.639,0.694-0.451,1.129c0.14,0.324,0.453,0.519,0.787,0.519   c0.113,0,0.229-0.022,0.34-0.07c2.737-1.183,4.436-3.579,4.436-6.255c0-0.097-0.011-0.196-0.016-0.294   c2.037,0.162,3.651,1.853,3.651,3.932c0,0.24-0.02,0.451-0.061,0.648c-0.021,0.097-0.016,0.194-0.003,0.288   c-0.001,0.008-0.006,0.014-0.008,0.023c-0.06,0.424,0.202,0.827,0.614,0.945c2.908,0.835,4.645,2.82,4.645,5.31   C43.092,25.538,41.598,27.531,39.282,28.259z"></path><path fill="url(#SvgjsLinearGradient1067)" d="M20.341,13.556c-1.989,0-3.607,1.618-3.607,3.605c0,1.989,1.618,3.608,3.607,3.608   c1.987,0,3.605-1.619,3.605-3.608C23.945,15.174,22.328,13.556,20.341,13.556z M20.341,19.91c-1.516,0-2.749-1.233-2.749-2.748   s1.234-2.747,2.749-2.747s2.746,1.232,2.746,2.747C23.087,18.677,21.854,19.91,20.341,19.91z"></path><path fill="url(#SvgjsLinearGradient1067)" d="M10.869,22.264c-0.659,0-1.195,0.535-1.195,1.194c0,0.66,0.536,1.195,1.195,1.195s1.195-0.535,1.195-1.195   C12.064,22.799,11.528,22.264,10.869,22.264z M10.869,23.794c-0.186,0-0.336-0.149-0.336-0.336c0-0.185,0.15-0.335,0.336-0.335   s0.336,0.15,0.336,0.335C11.205,23.645,11.054,23.794,10.869,23.794z"></path><path fill="url(#SvgjsLinearGradient1067)" d="M39.275,21.445c-0.812,0-1.472,0.66-1.472,1.472s0.66,1.473,1.472,1.473c0.811,0,1.472-0.661,1.472-1.473   S40.087,21.445,39.275,21.445z M39.275,23.53c-0.339,0-0.612-0.274-0.612-0.613c0-0.338,0.274-0.612,0.612-0.612   s0.612,0.274,0.612,0.612C39.888,23.256,39.612,23.53,39.275,23.53z"></path></g></g><g id="SvgjsG1061" featureKey="nameLeftFeature-0" transform="matrix(1.9496407298908427,0,0,1.9496407298908427,45.997121885302235,153.48575580399745)" fill="#ffffff"><path d="M18.36 4.880000000000001 c1.9 0 3.44 1.54 3.44 3.44 l0 11.1 c0 0.32 -0.26 0.58 -0.6 0.58 c-0.32 0 -0.6 -0.26 -0.6 -0.58 l0 -11.1 c0 -1.24 -1 -2.24 -2.24 -2.24 c-1.22 0 -2.24 1 -2.24 2.24 l0 8.24 c0 0.96 -0.78 1.74 -1.74 1.74 s-1.74 -0.78 -1.74 -1.74 l0 -8.26 c0 -0.78 -0.42 -1.52 -1.12 -1.92 c-1.04 -0.62 -2.38 -0.24 -3.08 0.84 l-7.22 11.24 c-0.06 0.08 -0.08 0.24 0.06 0.34 c0.18 0.12 0.28 0.02 0.36 -0.1 l7.22 -11.22 c0.48 -0.72 1.48 -1.22 2.42 -0.68 c0.52 0.32 0.86 0.88 0.86 1.5 l0 8.26 c0 1.24 1.02 2.24 2.24 2.24 c1.24 0 2.24 -1 2.24 -2.24 l0 -8.24 c0 -0.34 0.28 -0.6 0.6 -0.6 c0.34 0 0.6 0.26 0.6 0.6 l0 8.24 c0 1.9 -1.54 3.44 -3.44 3.44 c-1.88 0 -3.42 -1.54 -3.42 -3.44 l0 -8.26 c-0.02 -0.22 -0.12 -0.38 -0.3 -0.46 c-0.38 -0.18 -0.66 0.08 -0.78 0.3 l-7.2 11.16 c-0.4 0.74 -1.32 0.88 -1.96 0.5 c-0.7 -0.4 -0.92 -1.28 -0.52 -1.96 l7.24 -11.26 c1.04 -1.62 3.1 -2.16 4.68 -1.24 c1.06 0.62 1.72 1.76 1.72 3 l0 8.22 c0 0.3 0.24 0.56 0.54 0.56 s0.56 -0.26 0.56 -0.56 l0 -8.24 c-0.02 -1.9 1.54 -3.44 3.42 -3.44 z M24.000000000000004 4.880000000000001 l7.28 0 c2.48 0.02 4.48 2.06 4.48 4.54 c0 2.32 -1.78 4.24 -4.04 4.48 l3.62 3.6 c0.54 0.54 0.54 1.54 0 2.08 s-1.48 0.58 -2.04 0.02 c-0.52 -0.54 -2.52 -2.52 -2.52 -2.52 c-0.24 -0.24 -0.24 -0.62 0 -0.86 s0.62 -0.24 0.86 0 l2.48 2.48 c0.1 0.1 0.26 0.12 0.36 0.02 s0.12 -0.24 0 -0.36 l-4.64 -4.62 c-0.12 -0.12 -0.18 -0.26 -0.18 -0.42 c0 -0.34 0.28 -0.62 0.62 -0.62 l0.96 0 c1.82 0 3.32 -1.48 3.32 -3.3 s-1.5 -3.3 -3.32 -3.3 l-6.62 0 l0 3.3 c0 0.34 -0.28 0.6 -0.62 0.6 s-0.6 -0.26 -0.6 -0.6 l0 -3.92 c0 -0.32 0.26 -0.6 0.6 -0.6 z M31.26 6.6 c1.54 0 2.8 1.26 2.8 2.8 s-1.26 2.78 -2.8 2.78 l-3.34 0 c-1.82 0 -3.3 1.48 -3.3 3.3 l0 3.92 c0 0.32 -0.28 0.6 -0.62 0.6 s-0.6 -0.28 -0.6 -0.6 l0 -3.92 c0 -2.5 2.02 -4.52 4.52 -4.52 l3.34 0 c0.88 0 1.58 -0.7 1.58 -1.56 c0 -0.88 -0.7 -1.58 -1.58 -1.58 c-0.34 0 -0.6 -0.26 -0.6 -0.6 s0.26 -0.62 0.6 -0.62 z M38.839999999999996 17.04 c0.8 0 1.46 0.66 1.46 1.48 s-0.66 1.48 -1.46 1.48 c-0.82 0 -1.48 -0.66 -1.48 -1.48 s0.66 -1.48 1.48 -1.48 z M38.82 18.2 c-0.16 0 -0.32 0.14 -0.32 0.32 s0.16 0.32 0.32 0.32 c0.18 0 0.32 -0.14 0.32 -0.32 s-0.14 -0.32 -0.32 -0.32 z"></path></g><g id="SvgjsG1062" featureKey="nameRightFeature-0" transform="matrix(2.358990910276307,0,0,2.358990910276307,126.6410090897237,145.3075681729277)" fill="#ffffff"><path d="M1.24 20 c-0.14 0 -0.24 -0.12 -0.24 -0.26 l0 -11.98 c0 -0.14 0.1 -0.26 0.24 -0.26 l4.9 0 c1.52 0 2.72 0.38 3.56 1.16 c1.24 1.12 1.66 3.24 1.06 4.8 c-0.22 0.56 -0.6 1.08 -1.08 1.46 c-1.62 1.26 -3.64 1.14 -5.58 1.14 l0 3.68 c0 0.14 -0.12 0.26 -0.26 0.26 l-2.6 0 z M4.1 13.280000000000001 c0 0 2.52 0.28 3.4 -0.3 c0.34 -0.22 0.54 -0.76 0.54 -1.16 c-0.02 -0.44 -0.24 -0.9 -0.6 -1.18 c-0.38 -0.32 -1.32 -0.42 -1.8 -0.42 l-1.54 0.04 l0 3.02 z M11.12 20 c-0.08 0 -0.16 -0.04 -0.2 -0.12 c-0.06 -0.06 -0.06 -0.16 -0.04 -0.24 l4.66 -11.98 c0.04 -0.1 0.14 -0.16 0.24 -0.16 l2.68 0 c0.1 0 0.2 0.06 0.24 0.16 l4.58 11.98 c0.02 0.08 0.02 0.16 -0.04 0.24 c-0.04 0.08 -0.12 0.12 -0.2 0.12 l-2.78 0 c-0.1 0 -0.2 -0.06 -0.24 -0.16 l-0.74 -1.84 l-4.5 0.02 l-0.74 1.82 c-0.04 0.1 -0.14 0.16 -0.24 0.16 l-2.68 0 z M15.6 15.5 l2.88 0 l-1.44 -4.24 z M25.360000000000003 20 c-0.14 0 -0.26 -0.12 -0.26 -0.26 l0 -11.98 c0 -0.14 0.12 -0.26 0.26 -0.26 l2.36 0 c0.08 0 0.16 0.04 0.22 0.1 l4.6 7.1 l0 -6.94 c0 -0.14 0.12 -0.26 0.26 -0.26 l2.46 0 c0.14 0 0.26 0.12 0.26 0.26 l0 11.98 c0 0.14 -0.12 0.26 -0.26 0.26 l-2.36 0 c-0.08 0 -0.16 -0.04 -0.22 -0.1 l-4.58 -7.06 l0 6.9 c0 0.14 -0.12 0.26 -0.26 0.26 l-2.48 0 z"></path></g>
			</g>
		</svg>
	